Coordinates
version=1
nRows=16
nColumns=40
inDegrees=yes

Units are S.I. units (second, meters, Newtons, ...)
Angles are in degrees.

endheader
time	pelvis_tilt	pelvis_list	pelvis_rotation	pelvis_tx	pelvis_ty	pelvis_tz	hip_flexion_r	hip_adduction_r	hip_rotation_r	knee_angle_r	knee_angle_r_beta	ankle_angle_r	subtalar_angle_r	mtp_angle_r	hip_flexion_l	hip_adduction_l	hip_rotation_l	knee_angle_l	knee_angle_l_beta	ankle_angle_l	subtalar_angle_l	mtp_angle_l	lumbar_extension	lumbar_bending	lumbar_rotation	arm_flex_r	arm_add_r	arm_rot_r	elbow_flex_r	pro_sup_r	wrist_flex_r	wrist_dev_r	arm_flex_l	arm_add_l	arm_rot_l	elbow_flex_l	pro_sup_l	wrist_flex_l	wrist_dev_l
     20.25300000	     -6.11405597	     -6.64330772	     11.51325432	      0.95485245	      0.92046312	      0.42583699	      0.85845835	      5.37452336	    -22.36845949	      5.60113804	      5.60113804	     13.22406054	      5.20954439	     -4.50359740	     31.79056553	     -8.40160774	      1.32848994	     22.89953504	     22.89953504	      6.66172118	     -9.76833046	      7.99852713	     -8.90019736	      6.21655999	      6.15363525	     29.62281418	    -18.54209171	     -6.18282278	     86.00791565	     44.78964370	      0.00000000	      0.00000000	     -7.51113096	     -5.50842570	     -3.55934166	     28.09368123	     44.76434984	      0.00000000	      0.00000000
     20.26600000	     -6.10722064	     -6.74995181	     11.42775601	      0.95511159	      0.91938518	      0.42319081	      0.45430266	      5.37709641	    -22.22800062	      5.61700918	      5.61700918	     13.55295366	      5.25582516	     -4.58954976	     31.60181335	     -8.44224519	      0.98612070	     23.25496678	     23.25496678	      6.32502490	     -9.99718390	      8.01546452	     -8.78096294	      6.29076536	      6.10847767	     29.07134769	    -18.51189436	     -6.13461877	     85.74374805	     44.79597112	      0.00000000	      0.00000000	     -7.54638198	     -5.89293515	     -3.61168918	     28.05399019	     44.77611076	      0.00000000	      0.00000000
     20.27900000	     -6.08788720	     -6.84464816	     11.37875798	      0.95547178	      0.91834125	      0.42034275	      0.05336001	      5.34997259	    -22.08165717	      5.68860752	      5.68860752	     13.93754776	      5.23710675	     -4.46841273	     31.51529511	     -8.47284689	      0.78020580	     23.87106366	     23.87106366	      5.94871802	    -10.26533611	      7.40885175	     -8.60762142	      6.36069127	      6.33499595	     28.35200497	    -18.73793340	     -6.30723737	     84.64453359	     44.84288818	      0.00000000	      0.00000000	     -7.25513846	     -6.25685893	     -3.65091424	     27.91312693	     44.80780868	      0.00000000	      0.00000000
     20.29200000	     -6.00384601	     -6.79597145	     11.35436108	      0.95587319	      0.91766595	      0.41726928	     -0.39407871	      5.14642415	    -21.98734859	      5.86157133	      5.86157133	     14.24500676	      5.15153268	     -4.48716147	     31.28798930	     -8.35506439	      0.64629320	     24.47151623	     24.47151623	      5.86044096	    -10.53789246	      7.21463981	     -8.58506689	      6.29038894	      6.13330486	     27.60068105	    -18.59847194	     -6.26894973	     84.20833982	     44.85430106	      0.00000000	      0.00000000	     -7.06287205	     -6.67521111	     -3.70266629	     27.86140123	     44.82454696	      0.00000000	      0.00000000
     20.30500000	     -5.90611596	     -6.71157684	     11.35637313	      0.95626462	      0.91716221	      0.41396017	     -0.79862377	      4.87155123	    -21.89422045	      6.15825935	      6.15825935	     14.56099472	      4.98760914	     -4.47947672	     31.09502520	     -8.17570691	      0.64682902	     25.18631019	     25.18631019	      5.91921067	    -10.83205696	      6.93695422	     -8.59133633	      6.20558475	      5.96637620	     26.73877627	    -18.53417316	     -6.27892241	     83.54570425	     44.87422306	      0.00000000	      0.00000000	     -6.72554049	     -7.09622866	     -3.75744293	     27.82632466	     44.84454020	      0.00000000	      0.00000000
     20.31800000	     -5.82986943	     -6.61209930	     11.32725842	      0.95661094	      0.91680635	      0.41050982	     -1.04944601	      4.50891619	    -21.75485982	      6.71762726	      6.71762726	     14.93303347	      4.67845431	     -4.38790232	     30.92748264	     -7.96967155	      0.70407690	     25.92051425	     25.92051425	      6.10490519	    -11.19026303	      6.57856010	     -8.54469832	      6.12392341	      5.93479364	     25.82373976	    -18.62832215	     -6.44811523	     82.41233400	     44.91560408	      0.00000000	      0.00000000	     -6.18015168	     -7.48386989	     -3.81218799	     27.72784922	     44.87174933	      0.00000000	      0.00000000
     20.33100000	     -5.86977347	     -6.44948545	     11.27833905	      0.95676496	      0.91657930	      0.40684570	     -0.91796677	      3.94364003	    -21.49068248	      7.81157725	      7.81157725	     15.52880887	      4.01487508	     -3.86285148	     30.77514026	     -7.63935598	      0.78808857	     26.46986959	     26.46986959	      6.28726269	    -11.60089576	      6.22101653	     -8.32018360	      5.96534702	      6.19241587	     24.95983353	    -18.78995731	     -7.11045522	     80.02258214	     45.01895321	      0.00000000	      0.00000000	     -5.16689968	     -7.81047818	     -3.87093845	     27.12940221	     44.92642320	      0.00000000	      0.00000000
     20.34400000	     -5.77148463	     -6.22270604	     11.25753865	      0.95705743	      0.91678422	      0.40301828	     -1.06579237	      3.36862219	    -21.32259951	      8.66600098	      8.66600098	     15.92505518	      3.56021388	     -3.35061489	     30.40772340	     -7.25986885	      0.84998387	     26.94606452	     26.94606452	      6.69614735	    -11.91603723	      6.07262986	     -8.32481569	      5.78615554	      6.11189658	     24.03623450	    -18.66938445	     -7.49694403	     78.29792863	     45.09009260	      0.00000000	      0.00000000	     -4.32180381	     -8.17412358	     -3.97084043	     26.65607001	     44.98377608	      0.00000000	      0.00000000
     20.35700000	     -5.68249801	     -6.00593854	     11.24418421	      0.95738271	      0.91717569	      0.39899744	     -1.19185837	      2.78178760	    -21.19959128	      9.53750273	      9.53750273	     16.21254081	      3.14869804	     -3.00777671	     29.98300264	     -6.88243296	      0.84845658	     27.29397215	     27.29397215	      7.17798747	    -12.08668710	      6.04105941	     -8.25450879	      5.66949173	      6.04893654	     22.99419318	    -18.64817064	     -7.74511362	     76.71325351	     45.15014420	      0.00000000	      0.00000000	     -3.48845084	     -8.52480848	     -4.09987151	     26.44877885	     45.04101663	      0.00000000	      0.00000000
     20.37000000	     -5.61937460	     -5.78188084	     11.17467810	      0.95764791	      0.91771843	      0.39499228	     -1.16246242	      2.12970976	    -20.99942199	     10.64392253	     10.64392253	     16.45644036	      2.68406908	     -2.73870912	     29.51031742	     -6.50880821	      0.77406247	     27.52592603	     27.52592603	      7.78115497	    -12.17919008	      6.07537295	     -8.27065767	      5.49954940	      6.02399844	     21.80881255	    -18.66311070	     -7.99934976	     74.81470781	     45.22002320	      0.00000000	      0.00000000	     -2.57766491	     -8.89768363	     -4.26992826	     26.30946296	     45.10774361	      0.00000000	      0.00000000
     20.38300000	     -5.47396774	     -5.62947279	     11.11781283	      0.95796120	      0.91850360	      0.39094236	     -1.29970738	      1.59881059	    -20.85628419	     11.53331866	     11.53331866	     16.42419332	      2.35197577	     -2.70052093	     28.91992117	     -6.22613391	      0.67028654	     27.66215958	     27.66215958	      8.33982149	    -12.20172443	      5.97214364	     -8.33343007	      5.46722049	      5.77866864	     20.58971038	    -18.57563976	     -8.01050270	     73.60376196	     45.25641653	      0.00000000	      0.00000000	     -1.85428450	     -9.28889184	     -4.37980760	     26.42768856	     45.14772704	      0.00000000	      0.00000000
     20.39600000	     -5.47882891	     -5.38527024	     10.94035702	      0.95808125	      0.91928401	      0.38697485	     -0.84990961	      0.76601567	    -20.57268180	     13.28426479	     13.28426479	     16.51961426	      1.61303208	     -2.82164372	     28.32492785	     -5.90205565	      0.26568025	     27.56055400	     27.56055400	      8.89412199	    -11.97526984	      5.99255691	     -8.19692021	      5.29248761	      6.10799919	     19.36546048	    -18.80196898	     -8.20671936	     71.17199906	     45.34090806	      0.00000000	      0.00000000	     -0.78961169	     -9.59104477	     -4.58213552	     26.60543222	     45.21627454	      0.00000000	      0.00000000
     20.40900000	     -5.26315576	     -5.43517327	     10.91620863	      0.95839770	      0.92042987	      0.38302654	     -0.93908218	      0.44731015	    -20.50353710	     14.29469242	     14.29469242	     16.24975804	      1.28981362	     -2.90062402	     27.60804692	     -5.83566706	      0.20531055	     27.49328039	     27.49328039	      9.37619278	    -11.86545104	      5.87442117	     -8.29561086	      5.54690815	      5.68631804	     18.03339656	    -18.50920625	     -8.09371852	     70.14609589	     45.36534769	      0.00000000	      0.00000000	     -0.10057056	    -10.00632682	     -4.67492657	     26.81883436	     45.24797453	      0.00000000	      0.00000000
     20.42200000	     -5.39521351	     -5.06085036	     10.54358195	      0.95815944	      0.92121187	      0.37930831	      0.17179825	     -0.74012784	    -19.93859438	     17.01995682	     17.01995682	     16.21371176	      0.16739936	     -3.54293812	     26.97469201	     -5.49680528	     -0.72631160	     27.13925078	     27.13925078	      9.86734910	    -11.20206878	      5.74815565	     -8.12405129	      5.18945927	      6.29020819	     16.85178637	    -18.93353022	     -8.21841063	     67.17828545	     45.46547920	      0.00000000	      0.00000000	      1.11971522	    -10.27036743	     -4.92745827	     27.30764685	     45.32242473	      0.00000000	      0.00000000
     20.43500000	     -5.38679034	     -4.95893923	     10.30488351	      0.95797968	      0.92217600	      0.37573445	      1.01925534	     -1.50084622	    -19.50173353	     19.36128185	     19.36128185	     15.84875933	     -0.83273178	     -4.14363934	     26.32637501	     -5.39760220	     -1.32748673	     26.86582583	     26.86582583	     10.35772807	    -10.60099870	      5.55625139	     -8.07360740	      5.18098162	      6.32205633	     15.77256328	    -18.85533331	     -8.19905223	     64.70792043	     45.54339402	      0.00000000	      0.00000000	      2.09692658	    -10.61048136	     -5.18542233	     27.72218340	     45.39146035	      0.00000000	      0.00000000
     20.44800000	     -5.36142980	     -4.98587207	     10.05828692	      0.95767184	      0.92317877	      0.37251740	      1.97374737	     -2.04530268	    -18.76792702	     21.74717202	     21.74717202	     14.94593562	     -2.41206656	     -5.61434553	     25.72072417	     -5.50619555	     -2.06342454	     26.62401375	     26.62401375	     10.79705481	     -9.69259236	      5.28826315	     -7.95368219	      5.28112120	      5.76046487	     15.90301200	    -18.21171362	     -8.10366528	     59.76653065	     45.70357603	      0.00000000	      0.00000000	      2.77566684	    -10.98239341	     -6.11994663	     28.24142814	     45.58685175	      0.00000000	      0.00000000
